<svg height='300px' width='300px'  fill="#000000" xmlns="http://www.w3.org/2000/svg" xmlns:xlink="http://www.w3.org/1999/xlink" version="1.1" x="0px" y="0px" viewBox="0 0 512 512" enable-background="new 0 0 512 512" xml:space="preserve"><path d="M511.987,454.086L375.65,317.748c21.452-32.404,33.936-71.186,33.936-112.934  c0-113.121-91.683-204.805-204.786-204.805C91.695,0.009,0.013,91.693,0.013,204.814c0,113.09,91.683,204.805,204.787,204.805  c41.731,0,80.559-12.529,112.932-33.967L454.068,511.99L511.987,454.086z M58.042,204.845c0-81.06,65.715-146.745,146.758-146.745  c81.059,0,146.773,65.685,146.773,146.745c0,81.061-65.715,146.776-146.773,146.776C123.757,351.621,58.042,285.906,58.042,204.845z  "></path></svg>